<svg xmlns="http://www.w3.org/2000/svg" viewBox="0 0 1024 1024">
  <defs>
    <linearGradient id="bg" x1="150" y1="100" x2="850" y2="940" gradientUnits="userSpaceOnUse">
      <stop offset="0" stop-color="#0e8f89"/>
      <stop offset="0.48" stop-color="#0f5f68"/>
      <stop offset="1" stop-color="#182434"/>
    </linearGradient>
    <radialGradient id="glow" cx="355" cy="315" r="620" gradientUnits="userSpaceOnUse">
      <stop offset="0" stop-color="#7dddf4" stop-opacity="0.36"/>
      <stop offset="0.56" stop-color="#2dd4bf" stop-opacity="0.12"/>
      <stop offset="1" stop-color="#0f172a" stop-opacity="0"/>
    </radialGradient>
    <linearGradient id="hub" x1="312" y1="350" x2="506" y2="664" gradientUnits="userSpaceOnUse">
      <stop offset="0" stop-color="#123b47"/>
      <stop offset="1" stop-color="#0b2332"/>
    </linearGradient>
    <linearGradient id="card" x1="656" y1="225" x2="874" y2="788" gradientUnits="userSpaceOnUse">
      <stop offset="0" stop-color="#ffffff"/>
      <stop offset="1" stop-color="#d9fbf6"/>
    </linearGradient>
    <filter id="shadow" x="-20%" y="-20%" width="140%" height="140%">
      <feDropShadow dx="0" dy="22" stdDeviation="22" flood-color="#02151c" flood-opacity="0.32"/>
    </filter>
  </defs>

  <rect x="64" y="64" width="896" height="896" rx="184" fill="url(#bg)"/>
  <rect x="64" y="64" width="896" height="896" rx="184" fill="url(#glow)"/>
  <path d="M164 246h142M166 760h116M750 128h76M806 886h58" stroke="#b6f7ed" stroke-width="28" stroke-linecap="round" opacity="0.18"/>

  <g fill="none" stroke-linecap="round" stroke-linejoin="round">
    <path d="M222 512h178" stroke="#062734" stroke-width="106" opacity="0.22"/>
    <path d="M404 512c118 0 104-222 244-222h104" stroke="#062734" stroke-width="106" opacity="0.2"/>
    <path d="M404 512h348" stroke="#062734" stroke-width="106" opacity="0.18"/>
    <path d="M404 512c118 0 104 222 244 222h104" stroke="#062734" stroke-width="106" opacity="0.2"/>

    <path d="M222 512h178" stroke="#eafffb" stroke-width="72"/>
    <path d="M404 512c118 0 104-222 244-222h104" stroke="#67e8f9" stroke-width="72"/>
    <path d="M404 512h348" stroke="#ecfeff" stroke-width="72"/>
    <path d="M404 512c118 0 104 222 244 222h104" stroke="#fbbf24" stroke-width="72"/>
  </g>

  <circle cx="222" cy="512" r="62" fill="#eafffb" filter="url(#shadow)"/>
  <circle cx="222" cy="512" r="24" fill="#0f766e"/>

  <g filter="url(#shadow)">
    <circle cx="404" cy="512" r="118" fill="url(#hub)" stroke="#eafffb" stroke-width="34"/>
    <circle cx="404" cy="512" r="46" fill="#2dd4bf"/>
    <path d="M404 430v70M356 548h96" stroke="#eafffb" stroke-width="28" stroke-linecap="round"/>
  </g>

  <g filter="url(#shadow)">
    <rect x="650" y="213" width="242" height="154" rx="54" fill="url(#card)"/>
    <rect x="650" y="435" width="242" height="154" rx="54" fill="url(#card)"/>
    <rect x="650" y="657" width="242" height="154" rx="54" fill="url(#card)"/>
  </g>

  <g stroke-linecap="round">
    <circle cx="708" cy="290" r="23" fill="#14b8a6"/>
    <path d="M756 290h86" stroke="#0f5f68" stroke-width="34"/>

    <circle cx="708" cy="512" r="23" fill="#06b6d4"/>
    <path d="M756 512h86" stroke="#0f5f68" stroke-width="34"/>

    <circle cx="708" cy="734" r="23" fill="#f59e0b"/>
    <path d="M756 734h86" stroke="#0f5f68" stroke-width="34"/>
  </g>

  <rect x="64" y="64" width="896" height="896" rx="184" fill="none" stroke="#ecfeff" stroke-width="18" opacity="0.2"/>
</svg>
