<svg xmlns="http://www.w3.org/2000/svg" viewBox="0 0 1024 1024">
  <defs>
    <linearGradient id="bg" x1="168" y1="96" x2="856" y2="928" gradientUnits="userSpaceOnUse">
      <stop offset="0" stop-color="#9ef7e7"/>
      <stop offset="0.34" stop-color="#22c7ba"/>
      <stop offset="0.68" stop-color="#087786"/>
      <stop offset="1" stop-color="#16243d"/>
    </linearGradient>
    <radialGradient id="bloom" cx="314" cy="214" r="640" gradientUnits="userSpaceOnUse">
      <stop offset="0" stop-color="#ffffff" stop-opacity="0.58"/>
      <stop offset="0.35" stop-color="#c9fff6" stop-opacity="0.22"/>
      <stop offset="1" stop-color="#0f172a" stop-opacity="0"/>
    </radialGradient>
    <linearGradient id="plate" x1="292" y1="232" x2="748" y2="822" gradientUnits="userSpaceOnUse">
      <stop offset="0" stop-color="#ffffff" stop-opacity="0.34"/>
      <stop offset="0.52" stop-color="#ecfeff" stop-opacity="0.16"/>
      <stop offset="1" stop-color="#0f172a" stop-opacity="0.1"/>
    </linearGradient>
    <linearGradient id="line" x1="260" y1="302" x2="775" y2="736" gradientUnits="userSpaceOnUse">
      <stop offset="0" stop-color="#ffffff"/>
      <stop offset="0.58" stop-color="#f4fffd"/>
      <stop offset="1" stop-color="#dffdf7"/>
    </linearGradient>
    <linearGradient id="tealNode" x1="286" y1="356" x2="756" y2="690" gradientUnits="userSpaceOnUse">
      <stop offset="0" stop-color="#14f1d9"/>
      <stop offset="1" stop-color="#0f8fa0"/>
    </linearGradient>
    <linearGradient id="amberNode" x1="620" y1="578" x2="792" y2="770" gradientUnits="userSpaceOnUse">
      <stop offset="0" stop-color="#ffe27a"/>
      <stop offset="1" stop-color="#f59e0b"/>
    </linearGradient>
    <filter id="tileShadow" x="-20%" y="-20%" width="140%" height="150%">
      <feDropShadow dx="0" dy="34" stdDeviation="30" flood-color="#08111f" flood-opacity="0.24"/>
    </filter>
    <filter id="symbolShadow" x="-25%" y="-25%" width="150%" height="150%">
      <feDropShadow dx="0" dy="20" stdDeviation="18" flood-color="#04232d" flood-opacity="0.34"/>
    </filter>
  </defs>

  <rect x="64" y="64" width="896" height="896" rx="216" fill="url(#bg)" filter="url(#tileShadow)"/>
  <rect x="64" y="64" width="896" height="896" rx="216" fill="url(#bloom)"/>
  <path d="M184 188c86-60 212-92 364-80 156 13 270 72 330 154" fill="none" stroke="#ffffff" stroke-width="28" stroke-linecap="round" opacity="0.24"/>
  <path d="M148 778c122 70 277 100 438 78 116-16 207-52 284-108" fill="none" stroke="#061827" stroke-width="44" stroke-linecap="round" opacity="0.12"/>

  <g filter="url(#symbolShadow)">
    <circle cx="512" cy="512" r="282" fill="url(#plate)" stroke="#ffffff" stroke-width="24" opacity="0.78"/>
    <circle cx="512" cy="512" r="230" fill="#062d3c" opacity="0.2"/>

    <g fill="none" stroke-linecap="round" stroke-linejoin="round">
      <path d="M284 512h176" stroke="#083746" stroke-width="122" opacity="0.24"/>
      <path d="M464 512c108 0 118-164 246-164" stroke="#083746" stroke-width="122" opacity="0.22"/>
      <path d="M464 512h248" stroke="#083746" stroke-width="122" opacity="0.2"/>
      <path d="M464 512c108 0 118 164 246 164" stroke="#083746" stroke-width="122" opacity="0.22"/>

      <path d="M284 512h176" stroke="url(#line)" stroke-width="78"/>
      <path d="M464 512c108 0 118-164 246-164" stroke="url(#line)" stroke-width="78"/>
      <path d="M464 512h248" stroke="url(#line)" stroke-width="78"/>
      <path d="M464 512c108 0 118 164 246 164" stroke="url(#line)" stroke-width="78"/>
    </g>

    <circle cx="284" cy="512" r="78" fill="#ffffff"/>
    <circle cx="284" cy="512" r="35" fill="url(#tealNode)"/>

    <circle cx="464" cy="512" r="96" fill="#ffffff"/>
    <circle cx="464" cy="512" r="47" fill="url(#tealNode)"/>

    <circle cx="710" cy="348" r="78" fill="#ffffff"/>
    <circle cx="710" cy="348" r="32" fill="#13cfc2"/>

    <circle cx="710" cy="512" r="78" fill="#ffffff"/>
    <circle cx="710" cy="512" r="32" fill="#18a7c4"/>

    <circle cx="710" cy="676" r="78" fill="#ffffff"/>
    <circle cx="710" cy="676" r="32" fill="url(#amberNode)"/>
  </g>

  <rect x="64" y="64" width="896" height="896" rx="216" fill="none" stroke="#ffffff" stroke-width="16" opacity="0.3"/>
</svg>
