<svg xmlns="http://www.w3.org/2000/svg" viewBox="0 0 64 64">
  <defs>
    <linearGradient id="bg" x1="10" y1="6" x2="54" y2="58" gradientUnits="userSpaceOnUse">
      <stop offset="0" stop-color="#9ef7e7"/>
      <stop offset="0.34" stop-color="#22c7ba"/>
      <stop offset="0.68" stop-color="#087786"/>
      <stop offset="1" stop-color="#16243d"/>
    </linearGradient>
    <radialGradient id="bloom" cx="20" cy="14" r="40" gradientUnits="userSpaceOnUse">
      <stop offset="0" stop-color="#ffffff" stop-opacity="0.58"/>
      <stop offset="0.35" stop-color="#c9fff6" stop-opacity="0.22"/>
      <stop offset="1" stop-color="#0f172a" stop-opacity="0"/>
    </radialGradient>
    <linearGradient id="node" x1="16" y1="24" x2="48" y2="44" gradientUnits="userSpaceOnUse">
      <stop offset="0" stop-color="#14f1d9"/>
      <stop offset="1" stop-color="#0f8fa0"/>
    </linearGradient>
    <linearGradient id="amber" x1="39" y1="38" x2="50" y2="50" gradientUnits="userSpaceOnUse">
      <stop offset="0" stop-color="#ffe27a"/>
      <stop offset="1" stop-color="#f59e0b"/>
    </linearGradient>
  </defs>

  <rect x="4" y="4" width="56" height="56" rx="13.5" fill="url(#bg)"/>
  <rect x="4" y="4" width="56" height="56" rx="13.5" fill="url(#bloom)"/>
  <path d="M11.5 12.5c5.5-3.6 13-5.2 22.2-4.3 9.6.9 16.5 4.5 20 9.6" fill="none" stroke="#ffffff" stroke-width="1.8" stroke-linecap="round" opacity="0.28"/>
  <circle cx="32" cy="32" r="17.8" fill="#ffffff" opacity="0.2"/>

  <g fill="none" stroke="#f7fffd" stroke-linecap="round" stroke-linejoin="round">
    <path d="M17.5 32h10.8" stroke-width="5.4"/>
    <path d="M28.3 32c6.8 0 7.6-10.2 15.4-10.2" stroke-width="5.4"/>
    <path d="M28.3 32h15.4" stroke-width="5.4"/>
    <path d="M28.3 32c6.8 0 7.6 10.2 15.4 10.2" stroke-width="5.4"/>
  </g>

  <circle cx="17.5" cy="32" r="4.8" fill="#ffffff"/>
  <circle cx="17.5" cy="32" r="2.1" fill="url(#node)"/>
  <circle cx="28.3" cy="32" r="6" fill="#ffffff"/>
  <circle cx="28.3" cy="32" r="2.8" fill="url(#node)"/>
  <circle cx="43.7" cy="21.8" r="4.8" fill="#ffffff"/>
  <circle cx="43.7" cy="21.8" r="2" fill="#13cfc2"/>
  <circle cx="43.7" cy="32" r="4.8" fill="#ffffff"/>
  <circle cx="43.7" cy="32" r="2" fill="#18a7c4"/>
  <circle cx="43.7" cy="42.2" r="4.8" fill="#ffffff"/>
  <circle cx="43.7" cy="42.2" r="2" fill="url(#amber)"/>

  <rect x="4" y="4" width="56" height="56" rx="13.5" fill="none" stroke="#ffffff" stroke-width="1" opacity="0.3"/>
</svg>
